<?xml version="1.0" encoding="UTF-8"?>
<svg id="Layer_2" data-name="Layer 2" xmlns="http://www.w3.org/2000/svg" xmlns:xlink="http://www.w3.org/1999/xlink" viewBox="0 0 43.97 43.99">
  <defs>
    <style>
      .cls-1 {
        fill: url(#linear-gradient);
      }
    </style>
    <linearGradient id="linear-gradient" x1="0" y1="22" x2="43.97" y2="22" gradientUnits="userSpaceOnUse">
      <stop offset="0" stop-color="#974d9e"/>
      <stop offset="1" stop-color="#5491cd"/>
    </linearGradient>
  </defs>
  <g id="Layer_1-2" data-name="Layer 1">
    <path class="cls-1" d="M42.1,19.32c2.49.97,2.49,4.42,0,5.38-.04.02-.08.03-.13.05v-5.48l.13.05ZM36.12,16.25v11.53c.83-.55,1.7-1.06,2.6-1.53v-8.47c-.9-.47-1.77-.98-2.6-1.53ZM32.86,13.77c-.92-.81-1.79-1.68-2.6-2.6v15.68c0,2.38-1.73,4.51-4.1,4.74-2.72.26-5.01-1.87-5.01-4.53v-9.76c0-.72-.58-1.3-1.3-1.3s-1.3.58-1.3,1.3v9.76c0,2.52-2.04,4.56-4.56,4.56h-1.41c2.9,2.93,5.18,6.48,6.77,10.6.93,2.41,4.39,2.37,5.32-.04,1.84-4.76,4.61-8.76,8.19-11.91V13.77ZM13.99,28.35c.72,0,1.3-.58,1.3-1.3v-9.56c0-2.38,1.73-4.51,4.1-4.74,2.72-.27,5.01,1.87,5.01,4.53v9.76c0,.72.58,1.3,1.3,1.3s1.3-.58,1.3-1.3V7.52c0-.25.03-.49.07-.73-.93-1.55-1.74-3.22-2.42-4.98-.95-2.45-4.38-2.39-5.33.06-3.21,8.28-9.19,14.26-17.47,17.47-2.46.96-2.49,4.38-.03,5.34,2.52.97,4.82,2.2,6.9,3.68h5.25Z"/>
  </g>
</svg>