<?xml version="1.0" encoding="UTF-8"?>
<svg id="Layer_2" data-name="Layer 2" xmlns="http://www.w3.org/2000/svg" xmlns:xlink="http://www.w3.org/1999/xlink" viewBox="0 0 88.24 23.51">
  <defs>
    <style>
      .cls-1 {
        fill: url(#linear-gradient);
      }

      .cls-2 {
        fill: #fff;
      }
    </style>
    <linearGradient id="linear-gradient" x1="0" y1="11.75" x2="23.49" y2="11.75" gradientUnits="userSpaceOnUse">
      <stop offset="0" stop-color="#974d9e"/>
      <stop offset="1" stop-color="#5491cd"/>
    </linearGradient>
  </defs>
  <g id="Layer_1-2" data-name="Layer 1">
    <g>
      <g>
        <g>
          <path class="cls-2" d="M30.59,6.96h4.34v1.32h-2.73v1.62h2.55v1.31h-2.55v2.86h-1.61v-7.11Z"/>
          <path class="cls-2" d="M40.38,11.06h-2.61v1.69h2.92v1.32h-4.53v-7.11h4.39v1.32h-2.77v1.48h2.61v1.31Z"/>
          <path class="cls-2" d="M43.43,12.24l-.51,1.82h-1.67l2.17-7.11h2.11l2.2,7.11h-1.73l-.55-1.82h-2.04ZM45.24,11.04l-.44-1.51c-.13-.42-.25-.95-.36-1.37h-.02c-.11.42-.21.96-.33,1.37l-.42,1.51h1.57Z"/>
          <path class="cls-2" d="M49.19,8.31h-1.91v-1.35h5.46v1.35h-1.94v5.76h-1.61v-5.76Z"/>
          <path class="cls-2" d="M55.2,6.96v4.09c0,1.22.46,1.85,1.29,1.85s1.31-.59,1.31-1.85v-4.09h1.6v3.99c0,2.19-1.11,3.24-2.96,3.24s-2.85-.99-2.85-3.26v-3.96h1.61Z"/>
          <path class="cls-2" d="M60.78,7.05c.52-.08,1.29-.15,2.14-.15,1.05,0,1.79.16,2.3.56.42.34.65.83.65,1.49,0,.91-.64,1.53-1.25,1.75v.03c.5.2.77.67.95,1.33.22.8.44,1.73.58,2h-1.64c-.12-.2-.29-.78-.5-1.66-.19-.89-.5-1.13-1.15-1.14h-.49v2.79h-1.59v-7.01ZM62.37,10.11h.63c.8,0,1.28-.4,1.28-1.02,0-.65-.44-.98-1.18-.99-.39,0-.61.03-.73.05v1.96Z"/>
          <path class="cls-2" d="M71.26,11.06h-2.61v1.69h2.92v1.32h-4.53v-7.11h4.39v1.32h-2.77v1.48h2.61v1.31Z"/>
          <path class="cls-2" d="M80.8,11.35c-.03-.85-.06-1.89-.06-2.92h-.03c-.22.91-.52,1.92-.79,2.75l-.86,2.77h-1.25l-.76-2.75c-.23-.83-.47-1.84-.64-2.77h-.02c-.04.96-.07,2.06-.13,2.94l-.13,2.7h-1.49l.45-7.11h2.14l.7,2.37c.22.82.44,1.71.6,2.54h.03c.2-.82.44-1.76.67-2.55l.76-2.36h2.1l.39,7.11h-1.57l-.11-2.72Z"/>
          <path class="cls-2" d="M87.94,11.06h-2.61v1.69h2.92v1.32h-4.53v-7.11h4.39v1.32h-2.77v1.48h2.61v1.31Z"/>
        </g>
        <g>
          <path class="cls-2" d="M30.39,17.49h2.37v.48h-1.8v1.46h1.66v.47h-1.66v1.99h-.57v-4.39Z"/>
          <path class="cls-2" d="M36.19,20.28c0,1.17-.81,1.67-1.57,1.67-.85,0-1.51-.63-1.51-1.62,0-1.06.69-1.67,1.56-1.67s1.52.66,1.52,1.62ZM33.69,20.31c0,.69.4,1.21.96,1.21s.96-.51.96-1.23c0-.53-.27-1.21-.95-1.21s-.97.63-.97,1.22Z"/>
          <path class="cls-2" d="M36.92,19.71c0-.37,0-.69-.03-.98h.5l.02.62h.03c.14-.42.49-.69.87-.69.07,0,.11,0,.16.02v.54c-.06-.01-.12-.02-.2-.02-.4,0-.69.31-.77.74-.01.08-.03.17-.03.27v1.68h-.57v-2.17Z"/>
          <path class="cls-2" d="M44.15,19.95c-.03-.61-.07-1.35-.07-1.9h-.02c-.15.51-.33,1.06-.55,1.67l-.78,2.13h-.43l-.71-2.09c-.21-.62-.38-1.19-.51-1.71h-.01c-.01.55-.05,1.28-.08,1.94l-.12,1.88h-.54l.31-4.39h.72l.75,2.12c.18.54.33,1.02.44,1.48h.02c.11-.44.27-.92.46-1.48l.78-2.12h.72l.27,4.39h-.55l-.11-1.93Z"/>
          <path class="cls-2" d="M48.32,21.02c0,.33,0,.61.03.86h-.51l-.03-.51h-.01c-.15.25-.48.59-1.04.59-.5,0-1.09-.27-1.09-1.38v-1.84h.57v1.75c0,.6.18,1,.7,1,.38,0,.65-.27.76-.52.03-.08.05-.19.05-.29v-1.94h.57v2.29Z"/>
          <path class="cls-2" d="M49.19,21.29c.17.11.47.23.76.23.42,0,.61-.21.61-.47s-.16-.42-.59-.58c-.57-.2-.83-.51-.83-.89,0-.51.41-.93,1.09-.93.32,0,.6.09.78.2l-.14.42c-.12-.08-.35-.18-.65-.18-.34,0-.53.2-.53.43,0,.26.19.38.6.53.55.21.83.48.83.95,0,.55-.43.94-1.18.94-.35,0-.67-.08-.89-.21l.14-.44Z"/>
          <path class="cls-2" d="M52.48,17.84c0,.2-.14.35-.37.35-.2,0-.34-.16-.34-.35s.15-.36.36-.36.35.16.35.36ZM51.84,21.88v-3.15h.57v3.15h-.57Z"/>
          <path class="cls-2" d="M55.62,21.76c-.15.08-.48.18-.91.18-.95,0-1.57-.65-1.57-1.61s.66-1.67,1.69-1.67c.34,0,.64.08.79.16l-.13.44c-.14-.08-.35-.15-.67-.15-.72,0-1.11.53-1.11,1.19,0,.73.47,1.18,1.09,1.18.33,0,.54-.08.7-.16l.1.43Z"/>
          <path class="cls-2" d="M56.92,17.84c0,.2-.14.35-.37.35-.2,0-.34-.16-.34-.35s.15-.36.36-.36.35.16.35.36ZM56.28,21.88v-3.15h.57v3.15h-.57Z"/>
          <path class="cls-2" d="M59.55,21.88l-.05-.4h-.02c-.18.25-.51.47-.96.47-.64,0-.96-.45-.96-.91,0-.76.68-1.18,1.9-1.17v-.06c0-.26-.07-.73-.72-.73-.29,0-.6.09-.82.23l-.13-.38c.26-.17.64-.28,1.04-.28.96,0,1.2.66,1.2,1.29v1.18c0,.27.01.54.05.76h-.52ZM59.47,20.27c-.62-.01-1.33.1-1.33.71,0,.37.25.55.54.55.41,0,.67-.26.76-.53.02-.06.03-.12.03-.18v-.55Z"/>
          <path class="cls-2" d="M60.95,19.58c0-.33,0-.59-.03-.85h.51l.03.52h.01c.16-.3.52-.59,1.04-.59.44,0,1.11.26,1.11,1.34v1.88h-.57v-1.82c0-.51-.19-.93-.73-.93-.38,0-.67.27-.77.59-.03.07-.04.17-.04.27v1.9h-.57v-2.3Z"/>
          <path class="cls-2" d="M64.48,21.29c.17.11.47.23.76.23.42,0,.61-.21.61-.47s-.16-.42-.59-.58c-.57-.2-.83-.51-.83-.89,0-.51.41-.93,1.09-.93.32,0,.6.09.78.2l-.14.42c-.12-.08-.35-.18-.65-.18-.34,0-.53.2-.53.43,0,.26.19.38.6.53.55.21.83.48.83.95,0,.55-.43.94-1.18.94-.35,0-.67-.08-.89-.21l.14-.44Z"/>
        </g>
      </g>
      <path class="cls-1" d="M22.5,10.32c1.33.52,1.33,2.36,0,2.88-.02,0-.04.02-.07.03v-2.93l.07.03ZM19.3,8.68v6.16c.45-.29.91-.56,1.39-.82v-4.52c-.48-.25-.95-.52-1.39-.82ZM17.56,7.36c-.49-.43-.96-.9-1.39-1.39v8.38c0,1.27-.93,2.41-2.19,2.53-1.45.14-2.68-1-2.68-2.42v-5.22c0-.38-.31-.7-.7-.7s-.7.31-.7.7v5.22c0,1.34-1.09,2.43-2.43,2.43h-.75c1.55,1.56,2.77,3.46,3.62,5.66.5,1.29,2.34,1.27,2.84-.02.99-2.54,2.46-4.68,4.38-6.36V7.36ZM7.47,15.15c.38,0,.7-.31.7-.7v-5.11c0-1.27.93-2.41,2.19-2.53,1.45-.14,2.68,1,2.68,2.42v5.22c0,.38.31.7.7.7s.7-.31.7-.7V4.02c0-.13.02-.26.04-.39-.5-.83-.93-1.72-1.29-2.66-.51-1.31-2.34-1.28-2.85.03-1.71,4.42-4.91,7.62-9.33,9.33-1.32.51-1.33,2.34-.01,2.85s2.58,1.18,3.69,1.97h2.81Z"/>
    </g>
  </g>
</svg>