<?xml version="1.0" encoding="UTF-8"?>
<svg id="Layer_2" data-name="Layer 2" xmlns="http://www.w3.org/2000/svg" viewBox="0 0 94.62 59.35">
  <defs>
    <style>
      .cls-1, .cls-2 {
        fill: #231f20;
      }

      .cls-2 {
        font-family: MyriadPro-Regular, 'Myriad Pro';
        font-size: 8.09px;
      }
    </style>
  </defs>
  <g id="Layer_1-2" data-name="Layer 1">
    <g>
      <g>
        <g>
          <path class="cls-1" d="M41.65,19.12v5.44s.08-.03.12-.05c2.47-.96,2.47-4.38,0-5.34l-.12-.05Z"/>
          <path class="cls-1" d="M35.84,16.12v11.44c.83-.54,1.69-1.05,2.58-1.52v-8.4c-.89-.47-1.76-.97-2.58-1.52Z"/>
          <path class="cls-1" d="M32.61,13.66c-.92-.8-1.78-1.66-2.58-2.58v15.56c0,2.36-1.72,4.47-4.07,4.7-2.7.26-4.97-1.86-4.97-4.5v-9.69c0-.71-.58-1.29-1.29-1.29s-1.29.58-1.29,1.29v9.69c0,2.5-2.02,4.52-4.52,4.52h-1.39c2.88,2.91,5.14,6.43,6.72,10.52.92,2.39,4.35,2.35,5.28-.04,1.83-4.72,4.57-8.69,8.13-11.82V13.66Z"/>
          <path class="cls-1" d="M13.88,28.13c.71,0,1.29-.58,1.29-1.29v-9.49c0-2.36,1.72-4.47,4.07-4.7,2.69-.26,4.97,1.86,4.97,4.5v9.69c0,.71.58,1.29,1.29,1.29s1.29-.58,1.29-1.29V7.47c0-.25.03-.49.07-.72-.92-1.54-1.73-3.19-2.4-4.95-.94-2.43-4.34-2.37-5.29.06C16,10.07,10.06,16,1.85,19.19c-2.45.95-2.47,4.35-.03,5.29s4.78,2.19,6.85,3.65h5.21Z"/>
        </g>
        <rect class="cls-1" x="61.86" y="25.58" width="32.75" height="5.21"/>
        <path class="cls-1" d="M60.04,41.95h-19.08c-1.26,1.54-2.29,3.28-3.04,5.16h22.12v-5.16Z"/>
        <path class="cls-1" d="M32.5,59.35v-5c0-13.01,10.55-23.56,23.56-23.56h3.99v-5.21h-3.99c-15.89,0-28.77,12.88-28.77,28.77v5h5.21Z"/>
        <rect class="cls-1" x="69.36" y="26.86" width="5.21" height="32.49"/>
        <rect class="cls-1" x="76.35" y="54.27" width="5.21" height="5.07"/>
      </g>
      <text class="cls-2" transform="translate(78.24 39.62)"><tspan x="0" y="0">ME</tspan></text>
    </g>
  </g>
</svg>