<?xml version="1.0" encoding="UTF-8"?>
<svg id="Layer_2" data-name="Layer 2" xmlns="http://www.w3.org/2000/svg" xmlns:xlink="http://www.w3.org/1999/xlink" viewBox="0 0 94.62 59.35">
  <defs>
    <style>
      .cls-1 {
        fill: url(#linear-gradient);
      }
    </style>
    <linearGradient id="linear-gradient" x1="0" y1="29.67" x2="94.62" y2="29.67" gradientUnits="userSpaceOnUse">
      <stop offset="0" stop-color="#974d9e"/>
      <stop offset="1" stop-color="#5491cd"/>
    </linearGradient>
  </defs>
  <g id="Layer_1-2" data-name="Layer 1">
    <path class="cls-1" d="M41.78,19.17c2.47.96,2.47,4.38,0,5.34-.04.02-.08.03-.12.05v-5.44l.12.05ZM35.84,16.12v11.44c.83-.54,1.69-1.05,2.58-1.52v-8.4c-.89-.47-1.76-.97-2.58-1.52ZM32.61,13.66c-.92-.8-1.78-1.66-2.58-2.58v15.56c0,2.36-1.72,4.47-4.07,4.7-2.7.26-4.97-1.86-4.97-4.5v-9.69c0-.71-.58-1.29-1.29-1.29s-1.29.58-1.29,1.29v9.69c0,2.5-2.02,4.52-4.52,4.52h-1.39c2.88,2.91,5.14,6.43,6.72,10.52.92,2.39,4.35,2.35,5.28-.04,1.83-4.72,4.57-8.69,8.13-11.82V13.66ZM13.88,28.13c.71,0,1.29-.58,1.29-1.29v-9.49c0-2.36,1.72-4.47,4.07-4.7,2.69-.26,4.97,1.86,4.97,4.5v9.69c0,.71.58,1.29,1.29,1.29s1.29-.58,1.29-1.29V7.47c0-.25.03-.49.07-.72-.92-1.54-1.73-3.19-2.4-4.95-.94-2.43-4.34-2.37-5.29.06C16,10.07,10.06,16,1.85,19.19c-2.45.95-2.47,4.35-.03,5.29s4.78,2.19,6.85,3.65h5.21ZM94.62,25.58h-32.75v5.21h32.75v-5.21ZM60.04,41.95h-19.08c-1.26,1.54-2.29,3.28-3.04,5.16h22.12v-5.16ZM32.5,59.35v-5c0-13.01,10.55-23.56,23.56-23.56h3.99v-5.21h-3.99c-15.89,0-28.77,12.88-28.77,28.77v5h5.21ZM74.56,59.35V26.86h-5.21v32.49h5.21ZM81.55,59.35v-5.07h-5.21v5.07h5.21ZM83.59,39.62h.69l-.34-5.45h-.9l-.97,2.64c-.24.69-.44,1.29-.57,1.84h-.02c-.14-.57-.32-1.16-.55-1.84l-.93-2.64h-.9l-.38,5.45h.67l.15-2.34c.05-.82.09-1.73.1-2.41h.02c.15.65.37,1.35.63,2.12l.88,2.6h.53l.96-2.64c.27-.75.5-1.43.69-2.07h.02c0,.68.04,1.59.08,2.35l.14,2.39ZM88.18,36.48h-2.12v-1.72h2.24v-.59h-2.94v5.45h3.07v-.59h-2.36v-1.97h2.12v-.58Z"/>
  </g>
</svg>